<svg width="24" height="20" viewBox="0 0 24 20" fill="none" xmlns="http://www.w3.org/2000/svg">
<path d="M11.9465 0.291016C7.48003 0.291016 3.58906 2.84656 2.4653 6.47852H1.64176C0.710568 6.47852 0.00438857 7.31811 0.16394 8.23553L0.544984 10.4265C0.732414 11.5043 1.66781 12.291 2.76171 12.291H3.15581C3.60485 13.0605 4.18767 13.758 4.87413 14.3638L3.78058 18.0793C3.71384 18.306 3.75791 18.551 3.89952 18.7403C4.04112 18.9296 4.26367 19.041 4.50007 19.041H7.50007C7.81718 19.041 8.10002 18.8416 8.20651 18.5429L8.9293 16.5156C9.88127 16.7759 10.8955 16.916 11.9465 16.916C13.0062 16.916 14.0285 16.7736 14.9874 16.509L15.8028 18.5673C15.9161 18.8532 16.1925 19.041 16.5001 19.041H19.5001C19.7376 19.041 19.9611 18.9285 20.1026 18.7376C20.2441 18.5468 20.2867 18.3002 20.2177 18.0729L19.0751 14.3136C20.7148 12.8419 21.75 10.8381 21.75 8.60352C21.75 8.38538 21.7403 8.16963 21.7213 7.95651C22.1121 7.79163 22.4818 7.55795 22.7775 7.29064C23.25 7.75 24 7.75 24 6.66609C24 7 23.25 7 23.3082 6.62607C23.3706 6.50402 23.4175 6.37605 23.4426 6.24379C23.5077 5.9005 23.419 5.5548 23.1401 5.27592C22.815 4.95079 22.3931 4.95915 22.0801 5.12986C21.7854 5.29062 21.554 5.60667 21.5174 5.97254C21.481 6.33657 21.641 6.69303 21.9976 6.95306C21.8761 7.03738 21.7453 7.11492 21.6096 7.1827C20.8085 3.18688 16.6835 0.291016 11.9465 0.291016ZM22.7057 6.10404C22.6889 6.193 22.6416 6.30066 22.5582 6.41981C22.5345 6.40742 22.5124 6.39489 22.492 6.38228C22.2741 6.24758 22.2565 6.11945 22.2637 6.04717C22.274 5.94429 22.3473 5.83846 22.4393 5.78828C22.513 5.74805 22.5599 5.75639 22.6098 5.80625C22.7059 5.90239 22.7266 5.9942 22.7057 6.10404ZM9.20714 5.13033C8.80903 5.24473 8.39357 5.01473 8.27918 4.61663C8.16479 4.21852 8.39478 3.80306 8.79288 3.68867C9.78409 3.40385 10.845 3.25 11.9464 3.25C13.0905 3.25 14.191 3.41603 15.215 3.72243C15.6118 3.84117 15.8373 4.25912 15.7185 4.65595C15.5998 5.05278 15.1818 5.27822 14.785 5.15948C13.901 4.89497 12.9454 4.75 11.9464 4.75C10.9847 4.75 10.0632 4.88434 9.20714 5.13033ZM7.5 7.375C7.5 7.99632 6.99632 8.5 6.375 8.5C5.75368 8.5 5.25 7.99632 5.25 7.375C5.25 6.75368 5.75368 6.25 6.375 6.25C6.99632 6.25 7.5 6.75368 7.5 7.375Z" fill="#C21556"/>
</svg>
