<svg width="15" height="15" viewBox="0 0 15 15" fill="none" xmlns="http://www.w3.org/2000/svg">
<g opacity="0.3">
<path d="M14.5016 1.43934C14.6969 1.6346 14.6969 1.95118 14.5016 2.14645L13.4587 3.18933L11.4587 1.18933L12.5016 0.146447C12.6969 -0.0488156 13.0134 -0.0488154 13.2087 0.146447L14.5016 1.43934Z" fill="white"/>
<path d="M12.7516 3.89644L10.7516 1.89644L3.93861 8.70943C3.88372 8.76432 3.84237 8.83123 3.81782 8.90487L3.01326 11.3186C2.94812 11.514 3.13405 11.6999 3.32949 11.6348L5.74317 10.8302C5.81681 10.8057 5.88372 10.7643 5.93861 10.7094L12.7516 3.89644Z" fill="white"/>
<path fill-rule="evenodd" clip-rule="evenodd" d="M0 13C0 13.8284 0.671573 14.5 1.5 14.5H12.5C13.3284 14.5 14 13.8284 14 13V7C14 6.72386 13.7761 6.5 13.5 6.5C13.2239 6.5 13 6.72386 13 7V13C13 13.2761 12.7761 13.5 12.5 13.5H1.5C1.22386 13.5 1 13.2761 1 13V2C1 1.72386 1.22386 1.5 1.5 1.5H8C8.27614 1.5 8.5 1.27614 8.5 1C8.5 0.723858 8.27614 0.5 8 0.5H1.5C0.671573 0.5 0 1.17157 0 2V13Z" fill="white"/>
</g>
</svg>
