<svg width="16" height="16" viewBox="0 0 16 16" fill="none" xmlns="http://www.w3.org/2000/svg">
<path d="M10.6161 4.61612L10.6161 4.61613C10.5949 4.63733 10.575 4.6598 10.5564 4.68341L10.5564 4.68342L7.4322 8.66444L5.73743 6.96967C5.24927 6.48151 4.45782 6.48151 3.96966 6.96967C3.48151 7.45783 3.48151 8.24928 3.96966 8.73744L4.32322 8.38388L3.96966 8.73744L6.61611 11.3839C7.10427 11.872 7.89572 11.872 8.38388 11.3839C8.40344 11.3643 8.42191 11.3437 8.43919 11.3221L8.4392 11.3221L12.419 6.34735C12.8717 5.85686 12.86 5.09227 12.3839 4.61612L12.0303 4.96967L12.3839 4.61611C11.8957 4.12796 11.1043 4.12796 10.6161 4.61612ZM15.5 8C15.5 12.1421 12.1421 15.5 8 15.5C3.85786 15.5 0.5 12.1421 0.5 8C0.5 3.85786 3.85786 0.5 8 0.5C12.1421 0.5 15.5 3.85786 15.5 8Z" fill="black" stroke="black" stroke-linejoin="round"/>
</svg>
