<svg width="30" height="30" viewBox="0 0 30 30" fill="none" xmlns="http://www.w3.org/2000/svg">
<path d="M30 15C30 23.2843 23.2843 30 15 30C6.71573 30 0 23.2843 0 15C0 6.71573 6.71573 0 15 0C23.2843 0 30 6.71573 30 15ZM22.5569 9.31813C22.0077 8.76896 21.1173 8.76896 20.5681 9.31813C20.5549 9.33139 20.5424 9.34544 20.5308 9.3602L14.0201 17.6564L10.0948 13.731C9.54559 13.1819 8.6552 13.1819 8.10603 13.731C7.55686 14.2802 7.55686 15.1706 8.10603 15.7198L13.0681 20.6819C13.6173 21.231 14.5077 21.231 15.0569 20.6819C15.0691 20.6696 15.0806 20.6567 15.0914 20.6432L22.5768 11.2865C23.1059 10.7359 23.0993 9.86057 22.5569 9.31813Z" fill="white"/>
</svg>
