<svg width="16" height="17" viewBox="0 0 16 17" fill="none" xmlns="http://www.w3.org/2000/svg">
<path fill-rule="evenodd" clip-rule="evenodd" d="M8 3.99992C10.7614 3.99992 13 6.2385 13 8.99992C13 11.7613 10.7614 13.9999 8 13.9999C5.23858 13.9999 3 11.7613 3 8.99992C3 8.25449 3.1628 7.54845 3.45431 6.91426C3.56963 6.66335 3.45973 6.36646 3.20882 6.25113C2.95792 6.1358 2.66102 6.24571 2.54569 6.49661C2.19519 7.25915 2 8.10742 2 8.99992C2 12.3136 4.68629 14.9999 8 14.9999C11.3137 14.9999 14 12.3136 14 8.99992C14 5.68621 11.3137 2.99992 8 2.99992V3.99992Z" fill="black"/>
<path d="M8 5.46616V1.53368C8 1.32172 7.75279 1.20593 7.58995 1.34163L5.23047 3.30787C5.11053 3.40781 5.11053 3.59203 5.23047 3.69198L7.58995 5.65822C7.75279 5.79391 8 5.67812 8 5.46616Z" fill="black"/>
<path fill-rule="evenodd" clip-rule="evenodd" d="M8 3.99992C10.7614 3.99992 13 6.2385 13 8.99992C13 11.7613 10.7614 13.9999 8 13.9999C5.23858 13.9999 3 11.7613 3 8.99992C3 8.25449 3.1628 7.54845 3.45431 6.91426C3.56963 6.66335 3.45973 6.36646 3.20882 6.25113C2.95792 6.1358 2.66102 6.24571 2.54569 6.49661C2.19519 7.25915 2 8.10742 2 8.99992C2 12.3136 4.68629 14.9999 8 14.9999C11.3137 14.9999 14 12.3136 14 8.99992C14 5.68621 11.3137 2.99992 8 2.99992V3.99992Z" stroke="black"/>
<path d="M8 5.46616V1.53368C8 1.32172 7.75279 1.20593 7.58995 1.34163L5.23047 3.30787C5.11053 3.40781 5.11053 3.59203 5.23047 3.69198L7.58995 5.65822C7.75279 5.79391 8 5.67812 8 5.46616Z" stroke="black"/>
</svg>
