<svg width="32" height="32" viewBox="0 0 32 32" fill="none" xmlns="http://www.w3.org/2000/svg">
<g opacity="0.3">
<path fill-rule="evenodd" clip-rule="evenodd" d="M20 7C20 6.44772 19.5523 6 19 6L3 6C2.44772 6 2 6.44772 2 7V25C2 25.5523 2.44772 26 3 26H19C19.5523 26 20 25.5523 20 25V21C20 20.4477 20.4477 20 21 20C21.5523 20 22 20.4477 22 21V25C22 26.6569 20.6569 28 19 28H3C1.34315 28 0 26.6569 0 25V7C0 5.34314 1.34315 4 3 4L19 4C20.6569 4 22 5.34315 22 7V11C22 11.5523 21.5523 12 21 12C20.4477 12 20 11.5523 20 11V7Z" fill="white"/>
<path fill-rule="evenodd" clip-rule="evenodd" d="M8.29289 16.7071C7.90237 16.3166 7.90237 15.6834 8.29289 15.2929L14.2929 9.29289C14.6834 8.90237 15.3166 8.90237 15.7071 9.29289C16.0976 9.68342 16.0976 10.3166 15.7071 10.7071L11.4142 15L29 15C29.5523 15 30 15.4477 30 16C30 16.5523 29.5523 17 29 17H11.4142L15.7071 21.2929C16.0976 21.6834 16.0976 22.3166 15.7071 22.7071C15.3166 23.0976 14.6834 23.0976 14.2929 22.7071L8.29289 16.7071Z" fill="white"/>
</g>
</svg>
