<svg width="32" height="32" viewBox="0 0 32 32" fill="none" xmlns="http://www.w3.org/2000/svg">
<path d="M24 16C24 20.4183 20.4183 24 16 24C11.5817 24 8 20.4183 8 16C8 11.5817 11.5817 8 16 8C20.4183 8 24 11.5817 24 16Z" fill="white"/>
<path d="M16 0C16.5523 0 17 0.447715 17 1V5C17 5.55228 16.5523 6 16 6C15.4477 6 15 5.55228 15 5V1C15 0.447715 15.4477 0 16 0Z" fill="white"/>
<path d="M16 26C16.5523 26 17 26.4477 17 27V31C17 31.5523 16.5523 32 16 32C15.4477 32 15 31.5523 15 31V27C15 26.4477 15.4477 26 16 26Z" fill="white"/>
<path d="M32 16C32 16.5523 31.5523 17 31 17H27C26.4477 17 26 16.5523 26 16C26 15.4477 26.4477 15 27 15H31C31.5523 15 32 15.4477 32 16Z" fill="white"/>
<path d="M6 16C6 16.5523 5.55228 17 5 17H1C0.447715 17 -2.41411e-08 16.5523 0 16C2.41411e-08 15.4477 0.447715 15 1 15H5C5.55228 15 6 15.4477 6 16Z" fill="white"/>
<path d="M27.3137 4.68635C27.7042 5.07688 27.7042 5.71004 27.3137 6.10057L24.4853 8.929C24.0948 9.31952 23.4616 9.31952 23.0711 8.929C22.6805 8.53847 22.6805 7.90531 23.0711 7.51478L25.8995 4.68635C26.29 4.29583 26.9232 4.29583 27.3137 4.68635Z" fill="white"/>
<path d="M8.92893 23.0711C9.31945 23.4617 9.31945 24.0948 8.92893 24.4853L6.1005 27.3138C5.70998 27.7043 5.07681 27.7043 4.68629 27.3138C4.29576 26.9232 4.29576 26.2901 4.68629 25.8996L7.51472 23.0711C7.90524 22.6806 8.5384 22.6806 8.92893 23.0711Z" fill="white"/>
<path d="M27.3137 27.3138C26.9232 27.7043 26.29 27.7043 25.8995 27.3138L23.0711 24.4854C22.6805 24.0948 22.6805 23.4617 23.0711 23.0712C23.4616 22.6806 24.0948 22.6806 24.4853 23.0712L27.3137 25.8996C27.7042 26.2901 27.7042 26.9233 27.3137 27.3138Z" fill="white"/>
<path d="M8.92893 8.92902C8.53841 9.31954 7.90524 9.31954 7.51472 8.92902L4.68629 6.10059C4.29577 5.71007 4.29577 5.0769 4.68629 4.68638C5.07682 4.29585 5.70998 4.29585 6.1005 4.68638L8.92893 7.51481C9.31946 7.90533 9.31946 8.5385 8.92893 8.92902Z" fill="white"/>
</svg>
