<svg width="14" height="16" viewBox="0 0 14 16" fill="none" xmlns="http://www.w3.org/2000/svg">
<path fill-rule="evenodd" clip-rule="evenodd" d="M7 3.99992C9.76142 3.99992 12 6.2385 12 8.99992C12 11.7613 9.76142 13.9999 7 13.9999C4.23858 13.9999 2 11.7613 2 8.99992C2 8.25449 2.1628 7.54845 2.45431 6.91426C2.56963 6.66335 2.45973 6.36646 2.20882 6.25113C1.95792 6.1358 1.66102 6.24571 1.54569 6.49661C1.19519 7.25915 1 8.10742 1 8.99992C1 12.3136 3.68629 14.9999 7 14.9999C10.3137 14.9999 13 12.3136 13 8.99992C13 5.68621 10.3137 2.99992 7 2.99992V3.99992Z" fill="black"/>
<path d="M7 5.46616V1.53368C7 1.32172 6.75279 1.20593 6.58995 1.34163L4.23047 3.30787C4.11053 3.40781 4.11053 3.59203 4.23047 3.69198L6.58995 5.65822C6.75279 5.79391 7 5.67812 7 5.46616Z" fill="black"/>
<path fill-rule="evenodd" clip-rule="evenodd" d="M7 3.99992C9.76142 3.99992 12 6.2385 12 8.99992C12 11.7613 9.76142 13.9999 7 13.9999C4.23858 13.9999 2 11.7613 2 8.99992C2 8.25449 2.1628 7.54845 2.45431 6.91426C2.56963 6.66335 2.45973 6.36646 2.20882 6.25113C1.95792 6.1358 1.66102 6.24571 1.54569 6.49661C1.19519 7.25915 1 8.10742 1 8.99992C1 12.3136 3.68629 14.9999 7 14.9999C10.3137 14.9999 13 12.3136 13 8.99992C13 5.68621 10.3137 2.99992 7 2.99992V3.99992Z" stroke="black"/>
<path d="M7 5.46616V1.53368C7 1.32172 6.75279 1.20593 6.58995 1.34163L4.23047 3.30787C4.11053 3.40781 4.11053 3.59203 4.23047 3.69198L6.58995 5.65822C6.75279 5.79391 7 5.67812 7 5.46616Z" stroke="black"/>
</svg>
