<svg width="368" height="40" viewBox="0 0 368 40" fill="none" xmlns="http://www.w3.org/2000/svg">
<path d="M267.657 0.874904H278.448V30.5161H293.888L307.172 0.878905H318.068L335.235 39.1176H323.84L320.816 31.8283H304.261L301.249 39.1016H267.657V0.874904ZM312.689 11.7328L312.397 11.6968C310.86 15.6975 309.069 19.6022 307.581 23.7349H317.557L312.689 11.7328Z" fill="black"/>
<path d="M62.515 27.2355L70.7723 39.1216C70.2412 39.1576 69.9332 39.1936 69.6251 39.1936C66.5241 39.1936 63.423 39.1496 60.3261 39.2216C59.9253 39.255 59.5234 39.172 59.1698 38.983C58.8162 38.7939 58.5263 38.507 58.3357 38.1575C56.2724 35.1009 54.1443 32.0844 52.0405 29.0519H45.96V39.1336H35.1085V0.882906C35.4449 0.882906 35.7733 0.822895 36.1016 0.822895C41.9604 0.822895 47.8206 0.822895 53.6822 0.822895C56.5567 0.794067 59.4028 1.38671 62.0205 2.5592C67.3307 4.97963 70.0467 9.13635 70.0832 14.9134C70.1156 20.1143 67.955 24.135 63.265 26.7034C63.1382 26.7719 63.0151 26.8467 62.8961 26.9275C62.7947 26.9835 62.7299 27.0515 62.515 27.2355ZM46.0249 20.5744C48.6516 20.5744 51.1649 20.6584 53.6619 20.5344C54.6307 20.4823 55.6117 20.0343 56.5238 19.6302C57.1002 19.3716 57.6055 18.9807 57.9976 18.49C58.3897 17.9993 58.6571 17.4232 58.7776 16.8097C59.4991 13.6091 58.6317 10.1365 54.1646 9.55643C51.5256 9.21637 48.7976 9.49642 46.0573 9.49642L46.0249 20.5744Z" fill="black"/>
<path d="M206.147 17.8139L222.881 39.1896H221.498C218.061 39.1896 214.607 39.1896 211.182 39.2136C210.852 39.2379 210.521 39.1769 210.223 39.0366C209.924 38.8963 209.668 38.6815 209.479 38.4135C206.18 34.2328 202.839 30.084 199.511 25.9273C199.365 25.7473 199.211 25.5752 198.976 25.2952C197.626 26.7074 196.317 28.0277 195.085 29.4159C194.877 29.7806 194.788 30.1997 194.829 30.6161C194.801 32.9605 194.809 35.3009 194.809 37.6414V39.1216H184.035V0.926913H194.777V16.7137C195.336 16.2096 195.648 15.9656 195.916 15.6775C200.307 11.0367 204.691 6.38654 209.066 1.72705C209.321 1.41776 209.647 1.17295 210.017 1.01292C210.387 0.852894 210.791 0.782265 211.194 0.806892C214.68 0.870904 218.162 0.830897 222.041 0.830897L206.147 17.8139Z" fill="black"/>
<path d="M101.041 0.870904L118.224 39.1336H106.829C105.84 36.7332 104.835 34.3328 103.801 31.8523H87.2259C86.2206 34.2528 85.1991 36.6852 84.1979 39.1376H73.0301L90.1446 0.870904H101.041ZM100.55 23.7229C98.8639 19.6102 97.2384 15.6095 95.4994 11.3807L90.4891 23.7229H100.55Z" fill="black"/>
<path d="M337.809 27.9557C339.487 28.6918 341.052 29.4479 342.653 30.072C345.637 31.2312 348.845 31.7218 352.045 31.5083C353.104 31.4277 354.15 31.2277 355.163 30.9122C355.71 30.7805 356.198 30.4736 356.55 30.0393C356.902 29.605 357.098 29.0678 357.108 28.5118C357.161 27.9784 357.024 27.4436 356.721 26.999C356.417 26.5545 355.967 26.2279 355.446 26.0753C353.201 25.3472 350.91 24.7591 348.644 24.075C346.103 23.3308 343.48 22.7627 341.052 21.7506C337.979 20.4663 335.742 18.2179 335.142 14.8134C334.149 9.17636 336.796 4.35952 342.073 1.95109C345.681 0.302804 349.52 -0.137273 353.424 0.0347569C357.7 0.22279 361.883 0.978922 365.71 3.04729C365.876 3.1353 366.03 3.24332 366.29 3.40735C365.199 6.01181 364.117 8.60826 362.982 11.2967C361.766 10.7966 360.647 10.3086 359.5 9.86048C356.57 8.67017 353.381 8.23512 350.233 8.59626C349.138 8.709 348.08 9.05429 347.132 9.60844C345.17 10.8367 345.324 13.2771 347.473 14.1212C349.621 14.9654 351.822 15.3815 353.999 16.0056C356.545 16.7377 359.192 17.2498 361.612 18.278C370.218 21.9466 368.998 31.4043 364.567 35.481C362.31 37.5437 359.493 38.9118 356.46 39.4177C349.514 40.7364 342.323 39.8017 335.961 36.7532C335.405 36.4892 334.89 36.1411 334.274 35.781C335.498 33.0886 336.666 30.4921 337.809 27.9557Z" fill="black"/>
<path d="M181.862 9.18036H163.126V17.5818H180.224V26.0393H163.094V39.0936H152.124V0.890907H181.862V9.18036Z" fill="black"/>
<path d="M131.2 25.9833V39.0896H120.356V0.890907H150.037V9.14036H131.313V17.6699H148.363V25.9833H131.2Z" fill="black"/>
<path d="M236.545 39.1136V0.926913H247.446V30.5601H265.464V39.1136H236.545Z" fill="black"/>
<path d="M16.4415 39.0336C11.2529 34.5368 8.07888 29.1519 8.15995 22.1946C8.20859 17.9939 8.15995 13.7932 8.15995 9.42841H0V0.914911H32.9357V9.3724H24.7028V10.9287C24.7028 15.1334 24.7798 19.3301 24.642 23.5429C24.5716 28.1824 22.6828 32.6145 19.3723 35.9091C18.3589 36.9332 17.4022 38.0134 16.4415 39.0336ZM16.478 7.02798C16.0499 7.45564 15.6581 7.91727 15.3065 8.40823C14.5798 9.65125 14.172 11.0508 14.1188 12.4849C14.0864 13.081 14.0377 13.9012 13.6567 14.2132C11.792 15.7495 12.6797 17.6418 12.5541 19.4942C14.3823 19.0221 14.3823 19.0221 14.6133 17.7139C15.6308 18.706 17.6616 18.706 18.4116 17.7139C18.8413 19.0461 19.1291 19.2741 20.5722 19.3702C20.5722 18.1699 20.6208 16.9937 20.5438 15.8135C20.4711 15.4015 20.2563 15.0269 19.9357 14.7533C19.653 14.528 19.4264 14.2417 19.2732 13.9164C19.12 13.5912 19.0444 13.2356 19.052 12.877C19.0473 12.2026 18.9616 11.5311 18.7967 10.8767C18.4724 9.45241 18.0062 8.06017 16.478 7.02798ZM13.1378 22.9308L13.685 23.3308C12.469 25.2032 11.6096 27.0635 13.7458 28.7598C14.8606 27.1075 16.0159 25.4752 17.0739 23.7829C17.4053 23.2023 17.6071 22.5585 17.6657 21.8946C17.7309 21.5078 17.6451 21.111 17.4254 20.7842C17.2057 20.4575 16.8685 20.2252 16.482 20.1343C15.9181 19.9815 15.3223 19.985 14.7602 20.1445C14.1982 20.304 13.6915 20.6133 13.2959 21.0384C12.2744 22.0226 11.8731 23.1148 12.246 24.439L13.1378 22.9308ZM18.7723 20.8784C19.1777 23.2028 18.0549 24.7871 16.7739 26.3234C16.3451 26.8956 15.9538 27.4942 15.6024 28.1157C15.053 29.0274 14.8558 30.1044 15.0471 31.1482C15.1687 31.9484 15.3916 32.8005 16.3848 33.2286C16.9198 30.9722 18.2413 29.2119 19.4169 27.3556C19.9379 26.5562 20.3688 25.703 20.7019 24.8111C21.2734 23.2108 20.5478 21.6506 18.7723 20.8784Z" fill="black"/>
<path d="M234.364 39.1256H223.517V0.874904H234.364V39.1256Z" fill="black"/>
<path d="M16.478 7.02798C18.0062 8.06017 18.4724 9.45241 18.8129 10.8967C18.9778 11.5511 19.0636 12.2226 19.0683 12.897C19.0599 13.253 19.1336 13.6061 19.2839 13.9298C19.4342 14.2535 19.6571 14.5392 19.9357 14.7653C20.2563 15.0389 20.4711 15.4135 20.5438 15.8255C20.6208 17.0057 20.5722 18.1939 20.5722 19.3822C19.1291 19.2861 18.8413 19.0581 18.4116 17.7259C17.6616 18.714 15.6308 18.714 14.6133 17.7259C14.3823 19.0341 14.3823 19.0341 12.5541 19.5062C12.6797 17.6539 11.792 15.7615 13.6567 14.2252C14.0377 13.9132 14.0864 13.093 14.1188 12.4969C14.17 11.0587 14.5779 9.6548 15.3065 8.40823C15.6581 7.91727 16.0499 7.45564 16.478 7.02798ZM16.478 12.1809C16.7903 12.1813 17.0907 12.0631 17.3171 11.8508C17.5435 11.6386 17.6785 11.3485 17.6941 11.0407C17.6886 10.7352 17.5716 10.442 17.3646 10.2149C17.1575 9.98774 16.8744 9.84201 16.5672 9.80447C16.2565 9.81985 15.9621 9.94591 15.7384 10.1593C15.5148 10.3726 15.3772 10.6588 15.3511 10.9647C15.3424 11.1176 15.3646 11.2708 15.4166 11.4152C15.4686 11.5595 15.5492 11.6922 15.6537 11.8055C15.7583 11.9187 15.8847 12.0103 16.0255 12.0747C16.1664 12.1392 16.3188 12.1753 16.4739 12.1809H16.478Z" fill="#ED2709"/>
<path d="M12.9959 23.1748L12.246 24.455C11.8731 23.1308 12.2744 22.0546 13.2959 21.0544C13.6901 20.6297 14.1951 20.3202 14.7557 20.16C15.3163 19.9998 15.9108 19.9951 16.4739 20.1463C16.8525 20.2529 17.1802 20.4889 17.3986 20.8121C17.6169 21.1354 17.7116 21.5248 17.6657 21.9106C17.6071 22.5745 17.4053 23.2183 17.0739 23.7989C16.0159 25.4912 14.8606 27.1235 13.7458 28.7758C11.719 27.1755 12.3879 25.4392 13.4743 23.6789C13.5322 23.5877 13.5543 23.4788 13.5364 23.3726C13.5185 23.2665 13.4618 23.1705 13.377 23.1028C13.3484 23.0794 13.315 23.0626 13.2791 23.0535C13.2432 23.0444 13.2057 23.0432 13.1692 23.0501C13.1328 23.057 13.0984 23.0717 13.0684 23.0933C13.0385 23.1149 13.0137 23.1427 12.9959 23.1748Z" fill="#EA9127"/>
<path d="M18.7723 20.8784C20.5478 21.6506 21.2734 23.2108 20.7019 24.8111C20.368 25.6988 19.9371 26.548 19.4169 27.3436C18.2413 29.2119 16.9198 30.9722 16.3848 33.2126C15.3916 32.7845 15.1687 31.9524 15.0471 31.1322C14.8558 30.0884 15.053 29.0114 15.6024 28.0997C15.9538 27.4782 16.3451 26.8796 16.7739 26.3074C18.0549 24.7871 19.1737 23.2108 18.7723 20.8784Z" fill="#ED2709"/>
<path d="M16.4739 12.1809C16.3206 12.1747 16.17 12.1388 16.0307 12.0751C15.8915 12.0114 15.7663 11.9212 15.6624 11.8098C15.5585 11.6983 15.4778 11.5677 15.4251 11.4254C15.3724 11.2831 15.3486 11.132 15.3551 10.9807C15.3812 10.6748 15.5189 10.3886 15.7425 10.1753C15.9661 9.96191 16.2606 9.83585 16.5712 9.82048C16.8784 9.85801 17.1616 10.0037 17.3686 10.2309C17.5757 10.458 17.6927 10.7512 17.6981 11.0567C17.6784 11.363 17.5406 11.6503 17.3129 11.8594C17.0852 12.0685 16.785 12.1836 16.4739 12.1809Z" fill="black"/>
</svg>
