<svg width="806" height="87" viewBox="0 0 806 87" fill="none" xmlns="http://www.w3.org/2000/svg">
<path d="M586.227 1.90292H609.861V66.3725H643.678L672.773 1.91162H696.638L734.237 85.0808H709.28L702.657 69.2266H666.398L659.801 85.046H586.227V1.90292ZM684.856 25.5189L684.217 25.4405C680.852 34.1421 676.928 42.6348 673.669 51.6235H695.519L684.856 25.5189Z" fill="white"/>
<path d="M136.922 59.2373L155.007 85.0895C153.844 85.1678 153.169 85.2462 152.494 85.2462C145.702 85.2462 138.91 85.1504 132.127 85.3071C131.249 85.3796 130.369 85.1992 129.595 84.788C128.82 84.3768 128.185 83.7527 127.768 82.9925C123.249 76.3445 118.588 69.7835 113.98 63.1878H100.662V85.1156H76.8952V1.92032C77.6321 1.92032 78.3512 1.7898 79.0703 1.7898C91.9025 1.7898 104.738 1.7898 117.576 1.7898C123.871 1.7271 130.105 3.01609 135.838 5.56626C147.469 10.8307 153.417 19.8716 153.497 32.4366C153.568 43.7486 148.836 52.4936 138.564 58.08C138.286 58.229 138.017 58.3916 137.756 58.5673C137.534 58.6891 137.392 58.837 136.922 59.2373ZM100.804 44.7492C106.558 44.7492 112.062 44.932 117.531 44.6622C119.653 44.5491 121.802 43.5745 123.799 42.6957C125.062 42.1332 126.169 41.2829 127.027 40.2157C127.886 39.1485 128.472 37.8954 128.736 36.5611C130.316 29.5999 128.416 22.047 118.632 20.7852C112.852 20.0456 106.877 20.6547 100.876 20.6547L100.804 44.7492Z" fill="white"/>
<path d="M451.507 38.7452L488.157 85.2375H485.129C477.601 85.2375 470.036 85.2374 462.534 85.2897C461.812 85.3425 461.088 85.2098 460.434 84.9046C459.78 84.5993 459.219 84.1322 458.805 83.5494C451.578 74.4563 444.262 65.4328 436.973 56.3919C436.654 56.0003 436.316 55.6262 435.801 55.017C432.845 58.0887 429.977 60.9602 427.278 63.9796C426.822 64.7728 426.627 65.6843 426.719 66.5901C426.657 71.6892 426.674 76.7796 426.674 81.87V85.0895H403.076V2.01604H426.603V36.3523C427.829 35.2559 428.512 34.7251 429.098 34.0986C438.716 24.0048 448.317 13.8907 457.9 3.75634C458.458 3.08363 459.172 2.55116 459.983 2.2031C460.794 1.85505 461.677 1.70143 462.561 1.75499C470.196 1.89422 477.823 1.8072 486.319 1.8072L451.507 38.7452Z" fill="white"/>
<path d="M221.301 1.89422L258.936 85.1156H233.979C231.813 79.8947 229.611 74.6738 227.347 69.2788H191.044C188.842 74.4998 186.605 79.7903 184.412 85.1243H159.952L197.436 1.89422H221.301ZM220.227 51.5973C216.533 42.6522 212.973 33.9506 209.164 24.7531L198.191 51.5973H220.227Z" fill="white"/>
<path d="M739.875 60.8036C743.551 62.4046 746.978 64.0492 750.485 65.4067C757.021 67.9279 764.047 68.9948 771.056 68.5305C773.375 68.3553 775.665 67.9203 777.883 67.234C779.082 66.9476 780.151 66.28 780.922 65.3354C781.693 64.3908 782.123 63.2225 782.145 62.0131C782.26 60.853 781.96 59.6897 781.296 58.7229C780.631 57.756 779.645 57.0457 778.505 56.7138C773.586 55.1302 768.57 53.851 763.607 52.3631C758.04 50.7446 752.296 49.509 746.978 47.3075C740.248 44.5143 735.347 39.624 734.033 32.219C731.858 19.9586 737.656 9.48195 749.215 4.24363C757.117 0.658599 765.525 -0.29857 774.074 0.0755962C783.441 0.484568 792.603 2.12916 800.985 6.62785C801.349 6.81928 801.686 7.05422 802.254 7.41098C799.866 13.0757 797.495 18.723 795.009 24.5704C792.346 23.4827 789.896 22.4211 787.383 21.4465C780.965 18.8576 773.981 17.9114 767.087 18.6969C764.688 18.9421 762.371 19.6931 760.295 20.8984C755.998 23.5697 756.336 28.8777 761.041 30.7137C765.747 32.5497 770.567 33.4547 775.335 34.8121C780.911 36.4045 786.708 37.5183 792.009 39.7546C810.857 47.7339 808.185 68.3043 798.481 77.1711C793.538 81.6575 787.367 84.6331 780.724 85.7334C765.512 88.6016 749.762 86.5686 735.827 79.9382C734.61 79.3639 733.483 78.6069 732.133 77.8237C734.814 71.9676 737.371 66.3203 739.875 60.8036Z" fill="white"/>
<path d="M398.317 19.9673H357.281V38.2405H394.73V56.6355H357.21V85.0286H333.186V1.93772H398.317V19.9673Z" fill="white"/>
<path d="M287.356 56.5137V85.0199H263.606V1.93772H328.613V19.8803H287.604V38.4319H324.947V56.5137H287.356Z" fill="white"/>
<path d="M518.086 85.0721V2.01604H541.959V66.4683H581.424V85.0721H518.086Z" fill="white"/>
<path d="M36.0105 84.8981C24.6462 75.1176 17.6945 63.4053 17.8721 48.2734C17.9786 39.1368 17.8721 30.0002 17.8721 20.5068H0V1.98993H72.1364V20.385H54.1045V23.7699C54.1045 32.9152 54.2732 42.0431 53.9713 51.2058C53.8171 61.2966 49.6804 70.9366 42.4295 78.1022C40.2099 80.3298 38.1146 82.6792 36.0105 84.8981ZM36.0904 15.2859C35.1527 16.216 34.2945 17.2201 33.5245 18.2879C31.9328 20.9915 31.0398 24.0355 30.9232 27.1548C30.8522 28.4513 30.7456 30.2351 29.9111 30.9138C25.827 34.2552 27.7714 38.371 27.4962 42.3998C31.5003 41.373 31.5003 41.373 32.0064 38.5276C34.2348 40.6856 38.6829 40.6856 40.3253 38.5276C41.2664 41.4253 41.8968 41.9212 45.0575 42.1301C45.0575 39.5196 45.164 36.9614 44.9953 34.3944C44.8362 33.4982 44.3657 32.6835 43.6636 32.0885C43.0444 31.5983 42.5481 30.9756 42.2126 30.2682C41.8771 29.5608 41.7113 28.7874 41.7281 28.0075C41.7178 26.5407 41.5301 25.0802 41.1688 23.6567C40.4585 20.559 39.4375 17.5309 36.0904 15.2859ZM28.7746 49.8744L29.9732 50.7446C27.3097 54.8169 25.4275 58.8631 30.1064 62.5526C32.5479 58.9588 35.0783 55.4086 37.3955 51.7279C38.1214 50.4651 38.5634 49.0647 38.6917 47.6207C38.8346 46.7794 38.6465 45.9163 38.1653 45.2057C37.6841 44.4951 36.9457 43.9899 36.0993 43.7921C34.864 43.4597 33.5592 43.4674 32.3281 43.8143C31.0971 44.1612 29.9874 44.834 29.1209 45.7586C26.8836 47.8992 26.0046 50.2747 26.8214 53.1549L28.7746 49.8744ZM41.1155 45.4106C42.0033 50.4661 39.5441 53.9119 36.7385 57.2533C35.7994 58.4979 34.9423 59.8 34.1727 61.1516C32.9694 63.1347 32.5374 65.477 32.9563 67.7474C33.2227 69.4877 33.711 71.3411 35.8862 72.2722C37.0581 67.3645 39.9525 63.5358 42.5272 59.4983C43.6684 57.7597 44.6121 55.9039 45.3416 53.9642C46.5934 50.4835 45.0042 47.09 41.1155 45.4106Z" fill="white"/>
<path d="M513.309 85.0982H489.551V1.90292H513.309V85.0982Z" fill="white"/>
<path d="M36.0904 15.2859C39.4375 17.5309 40.4585 20.559 41.2043 23.7002C41.5656 25.1237 41.7533 26.5842 41.7636 28.051C41.7453 28.8252 41.9068 29.5933 42.236 30.2973C42.5651 31.0013 43.0533 31.6228 43.6636 32.1146C44.3657 32.7096 44.8362 33.5243 44.9953 34.4205C45.164 36.9875 45.0575 39.5718 45.0575 42.1562C41.8968 41.9473 41.2664 41.4514 40.3253 38.5538C38.6829 40.703 34.2348 40.703 32.0064 38.5538C31.5003 41.3992 31.5003 41.3992 27.4962 42.4259C27.7714 38.3971 25.827 34.2813 29.9111 30.9399C30.7456 30.2612 30.8522 28.4774 30.9232 27.1809C31.0355 24.0527 31.9287 20.9992 33.5245 18.2879C34.2945 17.2201 35.1527 16.216 36.0904 15.2859ZM36.0904 26.4934C36.7743 26.4943 37.4324 26.2372 37.9282 25.7756C38.424 25.3139 38.7197 24.683 38.7539 24.0135C38.7419 23.3491 38.4856 22.7113 38.0322 22.2173C37.5787 21.7233 36.9586 21.4064 36.2857 21.3247C35.6053 21.3582 34.9604 21.6324 34.4706 22.0964C33.9808 22.5604 33.6794 23.1829 33.6222 23.8482C33.6031 24.1809 33.6519 24.514 33.7657 24.828C33.8795 25.142 34.0561 25.4306 34.2851 25.6769C34.5141 25.9233 34.7909 26.1223 35.0994 26.2625C35.4078 26.4027 35.7417 26.4812 36.0815 26.4934H36.0904Z" fill="#ED2709"/>
<path d="M28.4639 50.4052L26.8214 53.1897C26.0046 50.3095 26.8836 47.9688 29.1209 45.7934C29.9842 44.8695 31.0904 44.1965 32.3183 43.848C33.5461 43.4996 34.8481 43.4893 36.0815 43.8182C36.9106 44.05 37.6284 44.5634 38.1066 45.2664C38.5849 45.9695 38.7923 46.8163 38.6917 47.6556C38.5634 49.0995 38.1214 50.4999 37.3955 51.7627C35.0783 55.4434 32.5479 58.9936 30.1064 62.5874C25.6672 59.1068 27.1322 55.3303 29.5115 51.5016C29.6385 51.3034 29.6869 51.0664 29.6477 50.8355C29.6084 50.6046 29.4842 50.3958 29.2985 50.2486C29.236 50.1978 29.1627 50.1611 29.0841 50.1413C29.0054 50.1215 28.9233 50.119 28.8435 50.134C28.7637 50.1489 28.6883 50.181 28.6227 50.2279C28.5571 50.2748 28.5028 50.3354 28.4639 50.4052Z" fill="#EA9127"/>
<path d="M41.1155 45.4106C45.0042 47.09 46.5934 50.4835 45.3416 53.9642C44.6104 55.8949 43.6667 57.7419 42.5272 59.4722C39.9525 63.5358 37.0581 67.3645 35.8862 72.2374C33.711 71.3063 33.2227 69.4964 32.9563 67.7126C32.5374 65.4422 32.9694 63.0999 34.1727 61.1168C34.9423 59.7651 35.7994 58.4631 36.7385 57.2185C39.5441 53.9119 41.9945 50.4835 41.1155 45.4106Z" fill="#ED2709"/>
<path d="M36.0815 26.4934C35.7456 26.48 35.4157 26.4018 35.1107 26.2633C34.8057 26.1248 34.5316 25.9287 34.304 25.6862C34.0764 25.4437 33.8998 25.1597 33.7843 24.8503C33.6689 24.5408 33.6168 24.2121 33.6311 23.883C33.6883 23.2177 33.9897 22.5953 34.4795 22.1312C34.9693 21.6672 35.6142 21.393 36.2946 21.3595C36.9674 21.4412 37.5876 21.7581 38.0411 22.2521C38.4945 22.7461 38.7508 23.3839 38.7628 24.0483C38.7196 24.7146 38.4177 25.3394 37.919 25.7942C37.4202 26.249 36.7627 26.4992 36.0815 26.4934Z" fill="#030303"/>
</svg>
